<svg width="213" height="183" viewBox="0 0 213 183" fill="none" xmlns="http://www.w3.org/2000/svg">
<path d="M160.258 0.0377948C108.915 0.641595 45.34 39.4153 19.148 61.0798L1.53415 88.3518L23.4459 82.9378C-10.2019 125.171 1.82175 152.827 3.23395 155.694C6.77395 165.651 14.856 173.618 27.966 178.843C37.917 182.823 49.208 183.313 58.882 182.862C100.711 180.903 150.123 154.835 182.052 127.099L182.794 126.459L189.149 94.4138L176.745 101.311C133.677 120.202 99.031 130.699 99.031 130.699C76.352 137.761 65.931 138.907 58.505 137.189L57.6089 136.913C55.5649 136.119 55.195 134.265 55.195 133.768C54.869 119.584 79.2689 89.0818 91.5559 75.8888C103.013 63.5848 121.023 50.0714 136.255 43.6681C146.46 39.3744 153.051 37.6581 156.133 37.9735C155.299 40.6139 153.923 43.8703 151.902 47.8355C151.902 47.8355 135.574 80.0568 134.867 81.3458C134.46 82.0768 212.64 36.4706 212.64 36.4706V20.8603L208.818 16.9804C195.811 4.59399 178.831 -0.180802 160.259 0.0373981L160.258 0.0377948Z" fill="#FFB81C"/>
<path fill-rule="evenodd" clip-rule="evenodd" d="M207.431 23.3984L156.16 54.7674C155.753 55.6896 149.085 68.5738 148.454 69.2158L207.561 33.4626L207.431 23.3984ZM150.929 24.6582C145.713 24.7974 138.323 27.3042 129.986 30.8241C113.886 37.6059 95.205 51.6316 83.294 64.4138C71.74 76.8438 45.0169 109.269 45.4199 126.306C45.5459 130.778 47.11 133.881 49.686 136.014C49.584 135.335 49.5369 134.625 49.5109 133.905C49.0939 116.869 75.8329 84.4368 87.3999 71.9958C99.2959 59.2128 117.962 45.1801 134.077 38.4112C144.698 33.9265 153.794 31.1024 158.822 32.7148C159.188 26.755 156.147 24.5209 150.929 24.6582ZM43.2709 63.7108C36.8549 65.2008 29.7689 66.7928 22.8639 68.4108C21.5359 70.1398 15.7379 78.1078 14.9559 79.1558C20.5899 77.7678 26.9199 76.2018 33.1719 74.6988C36.7059 70.5148 40.1649 66.8058 43.2709 63.7108ZM181.354 108.711C150.538 138.324 97.8279 167.552 54.5639 169.558C45.1639 170.013 34.8469 169.449 26.0169 165.949C17.9359 162.702 12.2779 158.51 8.57795 153.608C11.4169 161.769 18.0879 168.731 30.1259 173.527C38.9289 177.062 49.243 177.607 58.639 177.177C98.739 175.286 146.963 150.049 178.349 122.794L181.353 108.711H181.354Z" fill="#041342"/>
<path fill-rule="evenodd" clip-rule="evenodd" d="M162.704 5.7453C113.876 5.0693 50.5869 42.5065 23.1569 65.2008C33.4219 62.3348 43.917 60.0758 54.313 57.6998C-59.9116 166.924 56.1689 210.359 179.16 106.471C135.71 125.574 100.712 136.167 100.712 136.167C10.674 164.192 39.4709 105.681 80.5939 61.8928C85.6449 56.5058 101.762 41.5564 115.819 34.1716C140.534 19.6226 177.54 10.1781 156.993 50.4257L204.84 21.0866C193.652 10.4336 178.978 5.9705 162.704 5.7453Z" fill="#6F263D"/>
</svg>
