<svg width="106" height="49" viewBox="0 0 106 49" fill="none" xmlns="http://www.w3.org/2000/svg">
<path d="M42.3594 30.2562C42.3594 31.3262 41.9343 32.3523 41.1777 33.1089C40.4211 33.8655 39.395 34.2906 38.325 34.2906H14.1186L6.0498 42.3594V10.0842C6.0498 9.01421 6.47486 7.98805 7.23145 7.23145C7.98805 6.47486 9.01421 6.0498 10.0842 6.0498H38.325C39.395 6.0498 40.4211 6.47486 41.1777 7.23145C41.9343 7.98805 42.3594 9.01421 42.3594 10.0842V30.2562Z" stroke="#E7E5E4" stroke-width="3.45343" stroke-linecap="round" stroke-linejoin="round"/>
<path d="M99.7725 10.0848C99.7725 13.427 91.6443 16.1364 81.6177 16.1364C71.5911 16.1364 63.4629 13.427 63.4629 10.0848M99.7725 10.0848C99.7725 6.7426 91.6443 4.0332 81.6177 4.0332C71.5911 4.0332 63.4629 6.7426 63.4629 10.0848M99.7725 10.0848V38.3256C99.7725 39.9306 97.8597 41.4698 94.455 42.6047C91.0504 43.7396 86.4326 44.3772 81.6177 44.3772C76.8027 44.3772 72.185 43.7396 68.7803 42.6047C65.3756 41.4698 63.4629 39.9306 63.4629 38.3256V10.0848M63.4629 24.2052C63.4629 25.8102 65.3756 27.3494 68.7803 28.4843C72.185 29.6192 76.8027 30.2568 81.6177 30.2568C86.4326 30.2568 91.0504 29.6192 94.455 28.4843C97.8597 27.3494 99.7725 25.8102 99.7725 24.2052" stroke="#E7E5E4" stroke-width="3.45343" stroke-linecap="round" stroke-linejoin="round"/>
</svg>
