<svg width="82" height="36" viewBox="0 0 82 36" fill="none" xmlns="http://www.w3.org/2000/svg">
<path d="M31.5 22.5C31.5 23.2956 31.1839 24.0587 30.6213 24.6213C30.0587 25.1839 29.2956 25.5 28.5 25.5H10.5L4.5 31.5V7.5C4.5 6.70435 4.81607 5.94129 5.37868 5.37868C5.94129 4.81607 6.70435 4.5 7.5 4.5H28.5C29.2956 4.5 30.0587 4.81607 30.6213 5.37868C31.1839 5.94129 31.5 6.70435 31.5 7.5V22.5Z" stroke="#D8D6D5" stroke-width="2" stroke-linecap="round" stroke-linejoin="round"/>
<path d="M77.5 7.5C77.5 9.98528 71.4558 12 64 12C56.5442 12 50.5 9.98528 50.5 7.5M77.5 7.5C77.5 5.01471 71.4558 3 64 3C56.5442 3 50.5 5.01471 50.5 7.5M77.5 7.5V28.5C77.5 29.6935 76.0777 30.8381 73.5459 31.682C71.0142 32.5259 67.5804 33 64 33C60.4196 33 56.9858 32.5259 54.4541 31.682C51.9223 30.8381 50.5 29.6935 50.5 28.5V7.5M50.5 18C50.5 19.1935 51.9223 20.3381 54.4541 21.182C56.9858 22.0259 60.4196 22.5 64 22.5C67.5804 22.5 71.0142 22.0259 73.5459 21.182C76.0777 20.3381 77.5 19.1935 77.5 18" stroke="#D8D6D5" stroke-width="2" stroke-linecap="round" stroke-linejoin="round"/>
</svg>
