<svg width="443" height="141" viewBox="0 0 443 141" fill="none" xmlns="http://www.w3.org/2000/svg">
<g clip-path="url(#clip0_4005_4183)">
<path d="M46.446 68.5535C46.446 61.7242 49.9582 55.4272 55.6547 52.057L88.5062 32.3678L64.4779 18.2662L33.3397 37.0684C27.686 40.483 24.2167 46.7799 24.2167 53.5204V70.1055L46.4889 83.1429L46.446 68.5535Z" fill="#1C1917"/>
<path d="M66.2768 71.7462C66.2768 78.5753 62.7647 84.8723 57.0682 88.2869L24.2167 107.976L48.2449 122.122L79.3832 103.231C85.0369 99.8165 88.5062 93.5196 88.5062 86.7348V70.1498L66.2768 57.1122V71.7462Z" fill="#1C1917"/>
<path d="M128.333 51.6135H135.7C139.769 51.6135 143.067 54.9394 143.067 59.0191H150.562C150.562 50.904 143.923 44.2523 135.657 44.2523H128.29C120.195 44.2523 113.556 50.904 113.556 59.0191C113.556 67.2674 120.195 73.9635 128.29 73.9635H135.657C139.726 73.9635 143.024 77.2894 143.024 81.3691C143.024 85.4489 139.683 88.7747 135.657 88.7747H128.29C124.264 88.7747 120.923 85.4489 120.923 81.3691H113.556C113.556 89.4842 120.195 96.136 128.29 96.136H135.657C143.881 96.136 150.519 89.4842 150.519 81.3691C150.519 73.254 143.881 66.6023 135.614 66.6023H128.247C124.221 66.6466 120.923 63.2764 120.88 59.1078C120.88 59.1078 120.88 59.1078 120.88 59.0635C120.966 54.9394 124.264 51.6135 128.333 51.6135Z" fill="#1C1917"/>
<path d="M187.364 66.5136H165.263V44.2079H157.896V96.0916H165.263V73.9192H187.364V96.0916H194.859V44.2079H187.364V66.5136Z" fill="#1C1917"/>
<path d="M216.828 44.2079L203.037 72.0567V96.0916H210.404V81.3248H232.505V96.0916H240V72.0567L226.037 44.2079H216.828ZM210.404 73.9192L221.54 51.6135L232.547 73.9192H210.404Z" fill="#1C1917"/>
<path d="M255.635 69.8838V44.2079H248.183V96.0916H255.635V79.9944L263.431 72.1897L280.049 96.0916H285.189V90.9476L268.356 67.2674L285.189 50.1501V44.2079H280.949L255.635 69.8838Z" fill="#1C1917"/>
<path d="M322.832 81.3248C322.832 85.3601 319.491 88.7304 315.465 88.7304H308.098C304.072 88.7304 300.731 85.4045 300.731 81.3248V44.2079H293.364V81.3248C293.364 89.4399 300.003 96.0916 308.098 96.0916H315.465C323.688 96.0916 330.327 89.4399 330.327 81.3248V44.2079H322.832V81.3248Z" fill="#1C1917"/>
<path d="M360.606 44.2079H338.505V96.0916H360.606C368.829 96.0916 375.511 89.4399 375.511 81.3248V59.0191C375.511 50.8596 368.872 44.2079 360.606 44.2079ZM367.973 81.3248C367.973 85.3601 364.632 88.7304 360.606 88.7304H345.872V51.6135H360.606C364.632 51.6135 367.973 54.9394 367.973 59.0191V81.3248Z" fill="#1C1917"/>
<path d="M403.998 44.2079H396.631C388.536 44.2079 381.897 50.8596 381.897 58.9747V81.2804C381.897 89.3955 388.536 96.0473 396.631 96.0473H403.998C412.221 96.0473 418.903 89.3955 418.903 81.2804V58.9747C418.86 50.8596 412.221 44.2079 403.998 44.2079ZM411.365 81.3248C411.365 85.3601 408.024 88.7304 403.998 88.7304H396.631C392.605 88.7304 389.264 85.4045 389.264 81.3248V59.0191C389.264 54.9837 392.605 51.6135 396.631 51.6135H403.998C408.067 51.6135 411.365 54.9394 411.365 59.0191V81.3248Z" fill="#1C1917"/>
<path d="M128.333 51.6135H135.7C139.769 51.6135 143.067 54.9394 143.067 59.0191H150.562C150.562 50.904 143.923 44.2523 135.657 44.2523H128.29C120.195 44.2523 113.556 50.904 113.556 59.0191C113.556 67.2674 120.195 73.9635 128.29 73.9635H135.657C139.726 73.9635 143.024 77.2894 143.024 81.3691C143.024 85.4489 139.683 88.7747 135.657 88.7747H128.29C124.264 88.7747 120.923 85.4489 120.923 81.3691H113.556C113.556 89.4842 120.195 96.136 128.29 96.136H135.657C143.881 96.136 150.519 89.4842 150.519 81.3691C150.519 73.254 143.881 66.6023 135.614 66.6023H128.247C124.221 66.6466 120.923 63.2764 120.88 59.1078C120.88 59.1078 120.88 59.1078 120.88 59.0635C120.966 54.9394 124.264 51.6135 128.333 51.6135Z" fill="#1C1917"/>
</g>
<defs>
<clipPath id="clip0_4005_4183">
<rect width="394.903" height="104.211" fill="white" transform="translate(24 18)"/>
</clipPath>
</defs>
</svg>
