<svg width="106" height="49" viewBox="0 0 106 49" fill="none" xmlns="http://www.w3.org/2000/svg">
<path d="M42.3594 30.2562C42.3594 31.3262 41.9343 32.3523 41.1777 33.1089C40.4211 33.8655 39.395 34.2906 38.325 34.2906H14.1186L6.0498 42.3594V10.0842C6.0498 9.01421 6.47486 7.98805 7.23145 7.23145C7.98805 6.47486 9.01421 6.0498 10.0842 6.0498H38.325C39.395 6.0498 40.4211 6.47486 41.1777 7.23145C41.9343 7.98805 42.3594 9.01421 42.3594 10.0842V30.2562Z" stroke="#E7E5E4" stroke-width="3.45343" stroke-linecap="round" stroke-linejoin="round"/>
<path d="M75.5661 6.0498H67.4973C66.4273 6.0498 65.4011 6.47486 64.6445 7.23145C63.8879 7.98805 63.4629 9.01421 63.4629 10.0842V18.153M75.5661 6.0498H95.7381C96.8081 6.0498 97.8342 6.47486 98.5908 7.23145C99.3474 7.98805 99.7725 9.01421 99.7725 10.0842V18.153M75.5661 6.0498V42.3594M63.4629 18.153V38.325C63.4629 39.395 63.8879 40.4211 64.6445 41.1777C65.4011 41.9343 66.4273 42.3594 67.4973 42.3594H75.5661M63.4629 18.153H99.7725M99.7725 18.153V38.325C99.7725 39.395 99.3474 40.4211 98.5908 41.1777C97.8342 41.9343 96.8081 42.3594 95.7381 42.3594H75.5661" stroke="#E7E5E4" stroke-width="3.45343" stroke-linecap="round" stroke-linejoin="round"/>
</svg>
