<svg width="106" height="49" viewBox="0 0 106 49" fill="none" xmlns="http://www.w3.org/2000/svg">
<path d="M42.3594 30.2562C42.3594 31.3262 41.9343 32.3523 41.1777 33.1089C40.4211 33.8655 39.395 34.2906 38.325 34.2906H14.1186L6.0498 42.3594V10.0842C6.0498 9.01421 6.47486 7.98805 7.23145 7.23145C7.98805 6.47486 9.01421 6.0498 10.0842 6.0498H38.325C39.395 6.0498 40.4211 6.47486 41.1777 7.23145C41.9343 7.98805 42.3594 9.01421 42.3594 10.0842V30.2562Z" stroke="#E7E5E4" stroke-width="3.45343" stroke-linecap="round" stroke-linejoin="round"/>
<path d="M85.6554 4.0332V16.1364H97.7586M89.6898 26.2224H73.5522M89.6898 34.2912H73.5522M77.5866 18.1536H73.5522M86.664 4.0332H69.5178C68.4478 4.0332 67.4216 4.45825 66.665 5.21485C65.9084 5.97145 65.4834 6.99761 65.4834 8.0676V40.3428C65.4834 41.4128 65.9084 42.4389 66.665 43.1955C67.4216 43.9521 68.4478 44.3772 69.5178 44.3772H93.7242C94.7942 44.3772 95.8203 43.9521 96.5769 43.1955C97.3335 42.4389 97.7586 41.4128 97.7586 40.3428V15.1278L86.664 4.0332Z" stroke="#E7E5E4" stroke-width="3.45343" stroke-linecap="round" stroke-linejoin="round"/>
</svg>
